<svg id="Layer_1" data-name="Layer 1" xmlns="http://www.w3.org/2000/svg" viewBox="0 0 499.67858 354.86528"><defs><style>.cls-1{fill:#231f20;}</style></defs><title>sharky.cool</title><path class="cls-1" d="M500,133.802c0,115.107-76.1673,212.42533-180.85422,244.29584A254.79878,254.79878,0,0,1,248.57287,389.1a144.49771,144.49771,0,0,1-61.54865,33.05158,172.33762,172.33762,0,0,0,26.50231-34.90507,253.12074,253.12074,0,0,1-58.4407-14.274q-2.91588-1.08488-5.78643-2.249a48.404,48.404,0,0,1-36.15953,6.538,48.41411,48.41411,0,0,0,12.686-17.41583,254.938,254.938,0,0,1-35.83746-22.88578,122.6405,122.6405,0,0,1-6.86568,19.92476,124.26011,124.26011,0,0,1-17.947,28.94909c-.10168.13-.20908.26-.31648.38429q-2.95819,3.54309-6.17064,6.85443c-.373.38422-.74029.76292-1.11885,1.13582A124.17647,124.17647,0,0,1,.33274,427,152.75037,152.75037,0,0,0,41.804,377.79835c.14128-.26557.28255-.5368.42382-.808q1.07649-2.05128,2.09084-4.14209c.11305-.23163.226-.469.33338-.7007a151.40393,151.40393,0,0,0,14.72038-59.92121c.01132-.25426.02263-.50852.02263-.76278.02828-.63861.04518-1.27709.05084-1.92136.02255-1.00013.03387-2.006.03387-3.01179q0-4.33143-.243-8.60058-.2204-4.04317-.65551-8.02419a151.70539,151.70539,0,0,0-4.43588-23.47342,151.48277,151.48277,0,0,0-12.25657-31.006c-.47472-.89287-.955-1.78567-1.44664-2.66716a152.48232,152.48232,0,0,0-15.16683-22.37724A152.3505,152.3505,0,0,0,.32142,186.06074a123.572,123.572,0,0,1,31.96668,13.172,124.85085,124.85085,0,0,1,21.19619,15.69227q3.06829,2.82265,5.95591,5.843a124.85193,124.85193,0,0,1,16.167,21.06617,123.54424,123.54424,0,0,1,15.70928,40.14338q15.85049-4.10246,31.4863-8.73054a48.34,48.34,0,0,0-8.804-35.18761,48.40566,48.40566,0,0,1,30.21493,28.60447q36.39693-11.62935,71.55622-25.909,4.0771-1.64434,8.13145-3.33958a172.52408,172.52408,0,0,0-78.128-87.22594,156.03048,156.03048,0,0,1,156.38053,50.64256A1009.62482,1009.62482,0,0,0,492.50136,72.13472,255.83294,255.83294,0,0,1,500,133.802Z" transform="translate(-0.32142 -72.13472)"/></svg>